<svg width="775" height="286" viewBox="0 0 775 286" fill="none" xmlns="http://www.w3.org/2000/svg">
<path d="M0.085938 215.8V70.2C0.085938 24.2 20.0859 0.199993 59.2859 0.199993C97.2859 0.199993 117.686 24.2 117.686 70.2V215.8C117.686 261.8 97.2859 285.8 58.0859 285.8C20.0859 285.8 0.085938 261.8 0.085938 215.8ZM37.2859 202.2C37.2859 235.4 42.0859 250.2 58.4859 250.2C75.2859 250.2 80.4859 235.4 80.4859 202.2V83.8C80.4859 50.6 75.2859 35.8 58.8859 35.8C42.0859 35.8 37.2859 50.6 37.2859 83.8V202.2ZM141.492 283V2.99998H193.892C231.892 2.99998 254.692 24.2 254.692 54.2V93.8C254.692 115.8 242.692 133 221.092 140.6L265.092 283H226.292L184.692 145H177.892V283H141.492ZM177.892 109.4H193.092C209.892 109.4 217.492 97.4 217.492 80.2V67.8C217.492 50.6 209.892 38.6 193.492 38.6H177.892V109.4ZM277.039 283L317.439 2.99998H353.839L393.439 283H356.239L350.239 237H320.639L314.239 283H277.039ZM327.839 184.6L325.439 201H345.439L343.039 184.6C339.839 159.8 337.839 108.2 336.639 75.4H334.239C333.039 108.2 331.039 160.2 327.839 184.6ZM423.445 283V39.8H389.445V2.99998H493.845V39.8H459.845V283H423.445ZM509.852 215.8V70.2C509.852 24.2 529.852 0.199993 569.052 0.199993C607.052 0.199993 627.452 24.2 627.452 70.2V215.8C627.452 261.8 607.052 285.8 567.852 285.8C529.852 285.8 509.852 261.8 509.852 215.8ZM547.052 202.2C547.052 235.4 551.852 250.2 568.252 250.2C585.052 250.2 590.252 235.4 590.252 202.2V83.8C590.252 50.6 585.052 35.8 568.652 35.8C551.852 35.8 547.052 50.6 547.052 83.8V202.2ZM651.258 283V2.99998H703.658C741.658 2.99998 764.458 24.2 764.458 54.2V93.8C764.458 115.8 752.458 133 730.858 140.6L774.858 283H736.058L694.458 145H687.658V283H651.258ZM687.658 109.4H702.858C719.658 109.4 727.258 97.4 727.258 80.2V67.8C727.258 50.6 719.658 38.6 703.258 38.6H687.658V109.4Z" fill="#D9622B"/>
</svg>
