<svg width="775" height="286" viewBox="0 0 775 286" fill="none" xmlns="http://www.w3.org/2000/svg">
<path d="M4.76837e-07 215.8V70.2C4.76837e-07 24.2 20 0.199993 59.2 0.199993C97.2 0.199993 117.6 24.2 117.6 70.2V215.8C117.6 261.8 97.2 285.8 58 285.8C20 285.8 4.76837e-07 261.8 4.76837e-07 215.8ZM37.2 202.2C37.2 235.4 42 250.2 58.4 250.2C75.2 250.2 80.4 235.4 80.4 202.2V83.8C80.4 50.6 75.2 35.8 58.8 35.8C42 35.8 37.2 50.6 37.2 83.8V202.2ZM141.406 283V2.99998H193.806C231.806 2.99998 254.606 24.2 254.606 54.2V93.8C254.606 115.8 242.606 133 221.006 140.6L265.006 283H226.206L184.606 145H177.806V283H141.406ZM177.806 109.4H193.006C209.806 109.4 217.406 97.4 217.406 80.2V67.8C217.406 50.6 209.806 38.6 193.406 38.6H177.806V109.4ZM276.953 283L317.353 2.99998H353.753L393.353 283H356.153L350.153 237H320.553L314.153 283H276.953ZM327.753 184.6L325.353 201H345.353L342.953 184.6C339.753 159.8 337.753 108.2 336.553 75.4H334.153C332.953 108.2 330.953 160.2 327.753 184.6ZM423.359 283V39.8H389.359V2.99998H493.759V39.8H459.759V283H423.359ZM509.766 215.8V70.2C509.766 24.2 529.766 0.199993 568.966 0.199993C606.966 0.199993 627.366 24.2 627.366 70.2V215.8C627.366 261.8 606.966 285.8 567.766 285.8C529.766 285.8 509.766 261.8 509.766 215.8ZM546.966 202.2C546.966 235.4 551.766 250.2 568.166 250.2C584.966 250.2 590.166 235.4 590.166 202.2V83.8C590.166 50.6 584.966 35.8 568.566 35.8C551.766 35.8 546.966 50.6 546.966 83.8V202.2ZM651.172 283V2.99998H703.572C741.572 2.99998 764.372 24.2 764.372 54.2V93.8C764.372 115.8 752.372 133 730.772 140.6L774.772 283H735.972L694.372 145H687.572V283H651.172ZM687.572 109.4H702.772C719.572 109.4 727.172 97.4 727.172 80.2V67.8C727.172 50.6 719.572 38.6 703.172 38.6H687.572V109.4Z" fill="white"/>
</svg>
