<svg width="266" height="942" viewBox="0 0 266 942" fill="none" xmlns="http://www.w3.org/2000/svg">
<path d="M0.46875 215.8V70.2C0.46875 24.2 20.4688 0.199993 59.6688 0.199993C97.6688 0.199993 118.069 24.2 118.069 70.2V215.8C118.069 261.8 97.6688 285.8 58.4688 285.8C20.4688 285.8 0.46875 261.8 0.46875 215.8ZM37.6688 202.2C37.6688 235.4 42.4688 250.2 58.8688 250.2C75.6688 250.2 80.8688 235.4 80.8688 202.2V83.8C80.8688 50.6 75.6688 35.8 59.2688 35.8C42.4688 35.8 37.6688 50.6 37.6688 83.8V202.2ZM141.875 283V2.99998H194.275C232.275 2.99998 255.075 24.2 255.075 54.2V93.8C255.075 115.8 243.075 133 221.475 140.6L265.475 283H226.675L185.075 145H178.275V283H141.875ZM178.275 109.4H193.475C210.275 109.4 217.875 97.4 217.875 80.2V67.8C217.875 50.6 210.275 38.6 193.875 38.6H178.275V109.4ZM6.77344 611L47.1734 331H83.5734L123.173 611H85.9734L79.9734 565H50.3734L43.9734 611H6.77344ZM57.5734 512.6L55.1734 529H75.1734L72.7734 512.6C69.5734 487.8 67.5734 436.2 66.3734 403.4H63.9734C62.7734 436.2 60.7734 488.2 57.5734 512.6ZM192.914 611V367.8H158.914V331H263.314V367.8H229.314V611H192.914ZM0.46875 871.8V726.2C0.46875 680.2 20.4688 656.2 59.6688 656.2C97.6688 656.2 118.069 680.2 118.069 726.2V871.8C118.069 917.8 97.6688 941.8 58.4688 941.8C20.4688 941.8 0.46875 917.8 0.46875 871.8ZM37.6688 858.2C37.6688 891.4 42.4688 906.2 58.8688 906.2C75.6688 906.2 80.8688 891.4 80.8688 858.2V739.8C80.8688 706.6 75.6688 691.8 59.2688 691.8C42.4688 691.8 37.6688 706.6 37.6688 739.8V858.2ZM141.875 939V659H194.275C232.275 659 255.075 680.2 255.075 710.2V749.8C255.075 771.8 243.075 789 221.475 796.6L265.475 939H226.675L185.075 801H178.275V939H141.875ZM178.275 765.4H193.475C210.275 765.4 217.875 753.4 217.875 736.2V723.8C217.875 706.6 210.275 694.6 193.875 694.6H178.275V765.4Z" fill="#D9622B"/>
</svg>
